<svg width="24" height="24" viewBox="0 0 24 24" fill="none" xmlns="http://www.w3.org/2000/svg">
<path d="M3.25 4C3.25 3.58579 2.91421 3.25 2.5 3.25C2.08579 3.25 1.75 3.58579 1.75 4H3.25ZM21.0303 14.9656C21.3232 14.6727 21.3232 14.1979 21.0303 13.905L16.2574 9.13199C15.9645 8.8391 15.4896 8.8391 15.1967 9.13199C14.9038 9.42489 14.9038 9.89976 15.1967 10.1927L19.4393 14.4353L15.1967 18.6779C14.9038 18.9708 14.9038 19.4457 15.1967 19.7386C15.4896 20.0315 15.9645 20.0315 16.2574 19.7386L21.0303 14.9656ZM1.75 4V7.65882H3.25V4H1.75ZM9.27647 15.1853H20.5V13.6853H9.27647V15.1853ZM1.75 7.65882C1.75 11.8156 5.11972 15.1853 9.27647 15.1853V13.6853C5.94814 13.6853 3.25 10.9872 3.25 7.65882H1.75Z" fill="url(#paint0_linear_196_4055)"/>
<defs>
<linearGradient id="paint0_linear_196_4055" x1="1.08621" y1="14.4353" x2="63.2494" y2="35.5207" gradientUnits="userSpaceOnUse">
<stop stop-color="#FF7B21"/>
<stop offset="0.907261" stop-color="#F24ECE" stop-opacity="1"/>
</linearGradient>
</defs>
</svg>
