<svg width="38" height="38" viewBox="0 0 38 38" fill="none" xmlns="http://www.w3.org/2000/svg">
<rect width="38" height="38" rx="6.93534" fill="#191919"/>
<rect x="0.549753" y="0.549753" width="36.9005" height="36.9005" rx="6.38559" stroke="url(#paint0_linear_749_16891)" stroke-opacity="0.7" stroke-width="1.09951"/>
<path d="M29.7636 22.5213C29.3535 20.8809 28.2719 19.525 26.8837 18.9092C27.8392 18.1175 28.5242 16.9428 28.7901 15.618C29.0921 14.1483 28.8442 12.513 28.1186 11.2607C27.2173 9.69271 25.721 8.71465 24.0129 8.70947H13.4308V10.1533H24.0174C24.9683 10.1533 25.8382 10.5724 26.4871 11.2607C27.5147 12.3164 27.9293 14.1017 27.4922 15.618C27.0144 17.3257 25.6353 18.5263 24.0174 18.5315H14.6882V17.2429H24.3419C25.1441 17.1239 25.8336 16.5753 26.2167 15.7991C26.6629 14.9556 26.6539 13.7291 26.2032 12.8856C25.7615 12.0214 24.9458 11.4418 24.0129 11.4418C23.3188 11.4418 13.7553 11.4418 13.4263 11.4418V15.7991H8L8.45519 17.2429H13.4308V18.5315H8.8563L9.3115 19.9753H13.4308V21.0827H9.65852L9.67205 21.1293L10.1182 22.5265H13.4263L13.4308 29.6213H14.6882V25.0726H15.6526V29.6213H16.9101V25.0726H17.87H19.1274H24.2608V29.6213H25.5182V24.3118C25.5182 23.9341 25.2523 23.6288 24.9233 23.6288H14.6882V22.5213H25.1261C25.2568 22.5213 25.3875 22.5472 25.5092 22.5886C26.0905 22.7904 26.4781 23.4269 26.4781 24.1307V29.6213H27.7355V24.079C27.7355 23.5097 27.5958 22.9767 27.357 22.5265C26.8973 21.6623 26.0725 21.0827 25.1216 21.0827H14.6882V19.9753C15.3822 19.9753 24.7024 19.9753 25.1261 19.9753C26.068 19.9753 26.9288 20.3944 27.5643 21.0827C28.2809 21.8486 28.7 22.9353 28.7 24.079V29.6213H29.9574V24.079C29.9574 23.5356 29.8898 23.0181 29.7636 22.5213ZM14.6882 12.8856H24.0174C24.7159 12.8856 25.2838 13.5377 25.2838 14.3398C25.2838 15.1419 24.7159 15.7939 24.0174 15.7939H14.6882V12.8856Z" fill="url(#paint1_linear_749_16891)"/>
<defs>
<linearGradient id="paint0_linear_749_16891" x1="36.1476" y1="1.74396" x2="4.11782" y2="37.244" gradientUnits="userSpaceOnUse">
<stop stop-color="#D16B69"/>
<stop offset="1" stop-color="#6B3736" stop-opacity="0.15"/>
</linearGradient>
<linearGradient id="paint1_linear_749_16891" x1="6.27537" y1="29.6213" x2="87.3727" y2="46.366" gradientUnits="userSpaceOnUse">
<stop stop-color="#FF7B21"/>
<stop offset="0.907261" stop-color="#F24ECE" stop-opacity="0.6"/>
</linearGradient>
</defs>
</svg>
