<svg width="41" height="40" viewBox="0 0 41 40" fill="none" xmlns="http://www.w3.org/2000/svg">
<g clip-path="url(#clip0_656_1377)">
<path d="M15.4133 30.2021V28.1238C7.34667 27.1155 4.59333 18.1521 4.59333 18.1521C4.59333 18.1521 8.2 12.7821 15.4267 12.2171V10.2588C7.42167 10.9121 0.5 17.7371 0.5 17.7371C0.5 17.7371 4.41667 29.1638 15.4133 30.2021Z" fill="#77B900"/>
<path d="M7.625 18.4214C7.625 18.4214 9.31833 24.8147 15.4133 25.913V24.013C11.9833 22.8397 10.85 18.7897 10.85 18.7897C10.85 18.7897 12.8533 16.3864 15.4 16.698H15.4133V14.6214C15.8538 14.5722 16.2969 14.5521 16.74 14.5614C20.92 14.5614 23.4067 17.8414 23.4067 17.8414L20.0067 20.7214C18.49 18.1547 17.975 17.0264 15.4283 16.7147V24.0147C16.0467 24.2214 16.695 24.3264 17.3583 24.3264C22.3183 24.3264 26.9417 17.8564 26.9417 17.8564C26.9417 17.8564 22.6567 11.9797 16.12 12.188H16.1133C15.8797 12.1905 15.6463 12.2005 15.4133 12.218V14.6214L15.3683 14.6247L15.4067 14.623C10.5517 15.158 7.625 18.4214 7.625 18.4214Z" fill="#77B900"/>
<path d="M40.5 6.66699H15.4133V10.2587L16.12 10.2137C25.2033 9.90366 31.1367 17.7237 31.1367 17.7237C31.1367 17.7237 24.3367 26.062 17.2533 26.062C16.6414 26.0603 16.0308 26.0057 15.4283 25.8987V28.1237C15.9283 28.182 16.445 28.2287 16.945 28.2287C23.54 28.2287 28.3117 24.8303 32.9333 20.8237C33.6983 21.447 36.8333 22.9453 37.4833 23.5987C33.095 27.3087 22.8633 30.292 17.0617 30.292C16.5033 30.292 15.9733 30.262 15.4433 30.2037V33.3337H40.5V6.66699Z" fill="#77B900"/>
</g>
<defs>
<clipPath id="clip0_656_1377">
<rect width="40" height="40" fill="white" transform="translate(0.5)"/>
</clipPath>
</defs>
</svg>
